HIERARCHY
ROOT Hips
{
	OFFSET 0.000000 0.000000 0.000000 
	CHANNELS 6 Xposition Yposition Zposition Zrotation Yrotation Xrotation
	JOINT LeftUpLeg
	{
		OFFSET 1.363060 -1.794630 0.839290 
		CHANNELS 3 Zrotation Yrotation Xrotation
		JOINT LeftLeg
		{
			OFFSET 2.448110 -6.726130 0.000000 
			CHANNELS 3 Zrotation Yrotation Xrotation
			JOINT LeftFoot
			{
				OFFSET 2.562200 -7.039590 0.000000 
				CHANNELS 3 Zrotation Yrotation Xrotation
				JOINT LeftToeBase
				{
					OFFSET 0.157640 -0.433110 2.322550 
					CHANNELS 3 Zrotation Yrotation Xrotation
					End Site
					{
						OFFSET 0.000000 0.000000 0.000000 
					}
				}
			}
		}
	}
	JOINT RightUpLeg
	{
		OFFSET -1.305520 -1.794630 0.839290 
		CHANNELS 3 Zrotation Yrotation Xrotation
		JOINT RightLeg
		{
			OFFSET -2.542530 -6.985550 0.000000 
			CHANNELS 3 Zrotation Yrotation Xrotation
			JOINT RightFoot
			{
				OFFSET -2.568260 -7.056230 0.000000 
				CHANNELS 3 Zrotation Yrotation Xrotation
				JOINT RightToeBase
				{
					OFFSET -0.164730 -0.452590 2.363150 
					CHANNELS 3 Zrotation Yrotation Xrotation
					End Site
					{
						OFFSET 0.000000 0.000000 0.000000 
					}
				}
			}
		}
	}
	JOINT Spine
	{
		OFFSET 0.028270 2.035590 -0.193380 
		CHANNELS 3 Zrotation Yrotation Xrotation
		JOINT Spine1
		{
			OFFSET 0.056720 2.048850 -0.042750 
			CHANNELS 3 Zrotation Yrotation Xrotation
			JOINT Neck1
			{
				OFFSET -0.054170 1.746240 0.172020 
				CHANNELS 3 Zrotation Yrotation Xrotation
				JOINT Head
				{
					OFFSET 0.104070 1.761360 -0.123970 
					CHANNELS 3 Zrotation Yrotation Xrotation
					End Site
					{
						OFFSET 0.000000 0.000000 0.000000 
					}
				}
			}
			JOINT LeftArm
			{
				OFFSET 3.362410 1.200890 -0.311210 
				CHANNELS 3 Zrotation Yrotation Xrotation
				JOINT LeftForeArm
				{
					OFFSET 4.983000 -0.000000 -0.000000 
					CHANNELS 3 Zrotation Yrotation Xrotation
					JOINT LeftHand
					{
						OFFSET 3.483560 -0.000000 -0.000000 
						CHANNELS 3 Zrotation Yrotation Xrotation
						JOINT LeftHandIndex1
						{
							OFFSET 0.715260 -0.000000 -0.000000 
							CHANNELS 3 Zrotation Yrotation Xrotation
							End Site
							{
								OFFSET 0.000000 0.000000 0.000000 
							}
						}
					}
				}
			}
			JOINT RightArm
			{
				OFFSET -3.136600 1.374050 -0.404650 
				CHANNELS 3 Zrotation Yrotation Xrotation
				JOINT RightForeArm
				{
					OFFSET -5.241900 -0.000000 -0.000000 
					CHANNELS 3 Zrotation Yrotation Xrotation
					JOINT RightHand
					{
						OFFSET -3.444170 -0.000000 -0.000000 
						CHANNELS 3 Zrotation Yrotation Xrotation
						JOINT RightHandIndex1
						{
							OFFSET -0.622530 -0.000000 -0.000000 
							CHANNELS 3 Zrotation Yrotation Xrotation
							End Site
							{
								OFFSET 0.000000 0.000000 0.000000 
							}
						}
					}
				}
			}
		}
	}
}
MOTION
Frames: 11
Frame Time: 0.041667
6.264880 15.648836 -7.249284 -168.863377 -34.466068 -171.050767 -1.260523 6.879150 -56.165384 12.478818 18.856642 66.313760 -0.059729 5.117843 -15.453338 0.010000 -0.646000 -1.775200 30.395072 -13.882785 -45.827174 -12.446267 -19.347549 65.988232 179.539663 26.644283 -35.058922 -0.000900 -0.198000 0.544000 -8.817903 12.917699 -12.588821 -11.559052 5.054372 -21.355265 -11.747267 24.075464 -4.720683 -2.524100 10.714900 5.971600 0.017110 11.026427 -20.552199 21.202715 -30.562633 -9.250199 -4.388960 5.199256 31.676650 -7.125000 0.000000 0.000000 43.596438 -30.433092 55.583320 -98.900705 57.594852 -67.353913 0.190703 -0.581971 -1.993689 7.125000 0.000000 0.000000 
6.242512 15.627042 -7.271996 -169.326691 -34.493666 -170.561629 -2.005905 7.614301 -56.734759 12.540116 18.842151 66.488813 -0.004457 4.576187 -14.909371 0.005900 -0.497700 -1.367400 29.843932 -13.550786 -46.106055 -12.707155 -19.426302 66.751195 179.519521 26.547325 -35.037173 -0.000000 -0.001900 0.005300 -9.311771 12.950392 -12.457739 -12.117857 5.003688 -21.258004 -12.327483 24.303103 -4.689033 -2.659100 10.792000 6.095500 -2.757966 11.291914 -18.907962 19.952559 -29.469705 -8.448562 -4.511777 5.115396 31.037406 -7.125000 0.000000 0.000000 43.821536 -30.221899 55.303469 -98.942758 57.592401 -67.383680 0.198411 -0.580760 -2.685861 7.125000 0.000000 0.000000 
6.220948 15.609148 -7.291610 -169.852048 -34.386588 -170.074455 -2.849881 8.486946 -57.348806 12.638712 18.835406 66.781278 0.113252 3.864200 -14.665085 0.001100 -0.210800 -0.579200 29.185045 -13.157576 -46.333870 -12.975940 -19.505220 67.551217 179.503376 26.326205 -34.926990 -0.001400 0.237300 -0.652000 -9.724112 12.988411 -12.295715 -12.567517 4.975682 -21.182142 -12.901102 24.515555 -4.667012 -2.803900 10.862600 6.216300 -5.627080 11.591683 -17.102448 18.877541 -28.517080 -7.766116 -4.593557 5.034533 30.601783 -7.125000 0.000000 0.000000 43.876746 -29.854074 55.101247 -98.920050 57.598743 -67.356979 0.205236 -0.577442 -3.379169 7.125000 0.000000 0.000000 
6.199612 15.595957 -7.309849 -170.439265 -34.156068 -169.575888 -3.795310 9.448910 -57.925691 12.689592 18.809868 66.936049 0.169801 3.472935 -14.466447 0.002600 -0.331000 -0.909400 28.426193 -12.720971 -46.531027 -13.251691 -19.581820 68.384161 179.488404 25.967081 -34.732355 -0.005900 0.496100 -1.363200 -10.072349 13.025154 -12.112612 -12.908335 4.967635 -21.119006 -13.419170 24.704051 -4.638678 -2.945300 10.924300 6.331900 -8.570499 11.924440 -15.119920 17.972049 -27.706631 -7.192169 -4.627811 4.975705 30.405410 -7.125000 0.000000 0.000000 43.809946 -29.346642 54.958392 -98.813766 57.615020 -67.255455 0.211518 -0.572389 -4.067958 7.125000 0.000000 0.000000 
6.178048 15.589992 -7.328201 -171.081626 -33.830672 -169.056129 -4.839796 10.489215 -58.488852 12.711390 18.773569 67.006260 0.220188 3.102131 -14.251943 0.005400 -0.473900 -1.302100 27.591418 -12.275266 -46.724513 -13.531118 -19.654140 69.238723 179.477202 25.482029 -34.449457 -0.014100 0.767300 -2.108900 -10.374763 13.052632 -11.924154 -13.151059 4.973058 -21.061801 -13.830041 24.854286 -4.586327 -3.069500 10.972600 6.437800 -11.560473 12.263182 -12.981928 17.220646 -27.026596 -6.711496 -4.617054 4.938755 30.497098 -7.125000 0.000000 0.000000 43.668965 -28.733189 54.860904 -98.624637 57.639851 -67.078075 0.217536 -0.566130 -4.756192 7.125000 0.000000 0.000000 
6.155565 15.588501 -7.347243 -171.759734 -33.441275 -168.524015 -5.941962 11.548359 -59.025832 12.715480 18.734477 67.024818 0.293443 2.592419 -13.998104 0.005100 -0.461700 -1.268700 26.706413 -11.850967 -46.941627 -13.818103 -19.722214 70.124590 179.469678 24.881491 -34.081210 -0.025500 1.030200 -2.831900 -10.648548 13.064697 -11.736174 -13.317959 4.983540 -21.000594 -14.087681 24.957719 -4.475518 -3.162900 11.003200 6.538900 -14.557925 12.588210 -10.700388 16.612651 -26.467718 -6.313268 -4.563911 4.921633 30.856882 -7.125000 0.000000 0.000000 43.507831 -28.043545 54.785592 -98.376033 57.669880 -66.844287 0.223522 -0.559373 -5.458317 7.125000 0.000000 0.000000 
6.131362 15.587928 -7.366743 -172.430694 -33.026265 -168.015538 -7.033493 12.561377 -59.500157 12.715835 18.700793 67.036748 0.366022 2.123955 -13.826026 0.005500 -0.479500 -1.317600 25.814155 -11.491229 -47.202888 -14.117474 -19.787136 71.054984 179.465226 24.177477 -33.631790 -0.038600 1.267600 -3.485500 -10.900701 13.064728 -11.550641 -13.445149 4.992305 -20.919244 -14.161918 25.000643 -4.289522 -3.218000 11.011300 6.632900 -17.527730 12.870953 -8.265930 16.148833 -26.036287 -5.996604 -4.485900 4.912079 31.390776 -7.125000 0.000000 0.000000 43.367117 -27.316421 54.712762 -98.103263 57.700588 -66.585187 0.229679 -0.552768 -6.200428 7.125000 0.000000 0.000000 
6.104636 15.586666 -7.386243 -173.047466 -32.625291 -167.570828 -8.044764 13.477813 -59.884881 12.718170 18.675486 67.056781 0.434510 1.720848 -13.745517 0.006600 -0.525900 -1.445200 24.964105 -11.232283 -47.512022 -14.430047 -19.848849 72.031506 179.464849 23.389376 -33.104033 -0.051300 1.461600 -4.020000 -11.127081 13.052214 -11.370592 -13.569298 4.988620 -20.822791 -14.027566 24.981170 -4.003662 -3.225200 10.995300 6.724900 -20.444419 13.107425 -5.658597 15.835747 -25.747785 -5.763279 -4.394236 4.893736 32.031339 -7.125000 0.000000 0.000000 43.274300 -26.583087 54.632167 -97.852610 57.727214 -66.341632 0.236256 -0.546793 -7.018081 7.125000 0.000000 0.000000 
6.075616 15.584831 -7.404481 -173.572840 -32.272523 -167.221380 -8.927518 14.276577 -60.173980 12.722696 18.656955 67.082182 0.507997 1.327873 -13.738170 0.006200 -0.508500 -1.397200 24.201192 -11.097356 -47.868917 -14.752605 -19.906573 73.044716 179.467252 22.528204 -32.506277 -0.059700 1.576900 -4.337800 -11.321636 13.023636 -11.193154 -13.719495 4.962412 -20.714453 -13.697478 24.899101 -3.609805 -3.186900 10.953800 6.822100 -23.288568 13.295691 -2.859102 15.691972 -25.631269 -5.623078 -4.299282 4.861675 32.645000 -7.125000 0.000000 0.000000 43.253536 -25.858025 54.531732 -97.659010 57.746511 -66.144090 0.243367 -0.541868 -7.940144 7.125000 0.000000 0.000000 
6.044645 15.582995 -7.420769 -173.978537 -31.986536 -166.987619 -9.649702 14.952244 -60.367251 12.729606 18.643064 67.110208 0.580881 0.963791 -13.783196 0.004500 -0.435000 -1.195300 23.559505 -11.087597 -48.263381 -15.079874 -19.960050 74.078853 179.476993 21.621421 -31.830704 -0.061300 1.597500 -4.394500 -11.475618 12.981047 -11.021634 -13.913443 4.910164 -20.600812 -13.212157 24.754086 -3.127222 -3.115100 10.888100 6.922900 -26.047168 13.428892 0.125034 15.717893 -25.691775 -5.575443 -4.206146 4.815761 33.194121 -7.125000 0.000000 0.000000 43.315845 -25.160751 54.407970 -97.553873 57.755609 -66.021364 0.251517 -0.537821 -8.990119 7.125000 0.000000 0.000000 
6.012642 15.581390 -7.434763 -174.256689 -31.772629 -166.871572 -10.207121 15.514922 -60.475375 12.739920 18.632282 67.143058 0.650750 0.635468 -13.867664 0.002300 -0.309300 -0.849800 23.052080 -11.188855 -48.691408 -15.408426 -20.009012 75.123038 179.497944 20.694513 -31.070426 -0.054600 1.507600 -4.146600 -11.580962 12.925203 -10.850948 -14.144957 4.834549 -20.478932 -12.615705 24.547512 -2.586004 -3.021200 10.798900 7.023400 -28.723168 13.513710 3.297890 15.928219 -25.950174 -5.628755 -4.117694 4.749371 33.639427 -7.125000 0.000000 0.000000 43.461560 -24.497526 54.250416 -97.568693 57.751910 -66.003612 0.261314 -0.534113 -10.188365 7.125000 0.000000 0.000000 
